<svg width="35" height="15" viewBox="0 0 35 15" fill="none" xmlns="http://www.w3.org/2000/svg">
<path d="M0.911793 7.22156C0.911793 6.87944 1.13975 6.65149 1.48186 6.65149L33.2896 6.65149C33.6317 6.65149 33.8596 6.87945 33.8596 7.22156C33.8596 7.56368 33.6317 7.79164 33.2896 7.79164L1.53866 7.79163C1.19655 7.79163 0.91169 7.56368 0.91169 7.22156L0.911793 7.22156Z" fill="white"/>
<path d="M23.2569 13.8909C23.2569 13.7198 23.371 13.5488 23.5417 13.435L32.8908 7.22148L23.4849 1.06524C23.2001 0.894182 23.1428 0.552065 23.3139 0.267216C23.4849 -0.0176425 23.8271 -0.0749017 24.1119 0.0961564L35 7.22147L24.1128 14.3468C23.828 14.5178 23.4858 14.4609 23.3148 14.1757C23.2575 14.0619 23.2575 14.0047 23.2575 13.8909L23.2569 13.8909Z" fill="white"/>
</svg>
