<svg width="35" height="15" viewBox="0 0 35 15" fill="none" xmlns="http://www.w3.org/2000/svg">
<path d="M34.0882 7.22143C34.0882 7.56355 33.8603 7.7915 33.5182 7.7915L1.71044 7.7915C1.36832 7.7915 1.14037 7.56355 1.14037 7.22143C1.14037 6.87931 1.36832 6.65136 1.71044 6.65136L33.4614 6.65136C33.8035 6.65136 34.0883 6.87931 34.0883 7.22143L34.0882 7.22143Z" fill="#AE0F0F"/>
<path d="M11.7431 0.552103C11.7431 0.723161 11.629 0.894219 11.4583 1.00802L2.10925 7.22152L11.5151 13.3778C11.7999 13.5488 11.8572 13.8909 11.6861 14.1758C11.5151 14.4606 11.1729 14.5179 10.8881 14.3468L8.61152e-08 7.22152L10.8872 0.0962125C11.172 -0.0748461 11.5142 -0.0179442 11.6852 0.267272C11.7425 0.381072 11.7425 0.438328 11.7425 0.552128L11.7431 0.552103Z" fill="#AE0F0F"/>
</svg>
