<svg width="33" height="29" viewBox="0 0 33 29" fill="none" xmlns="http://www.w3.org/2000/svg">
<rect width="33" height="29" fill="#AE0F0F"/>
<path d="M12.3366 19.3113C13.031 21.8083 14.999 23.749 17.5056 24.4081C20.0123 25.0673 22.6804 24.3456 24.5131 22.513C26.3456 20.6803 27.0674 18.0122 26.4081 15.5055C25.749 12.999 23.8084 11.031 21.3113 10.3366C20.617 7.83958 18.6489 5.89895 16.1424 5.23979C13.6357 4.58063 10.9676 5.30235 9.1349 7.13487C7.30235 8.96765 6.58061 11.6357 7.23982 14.1424C7.89898 16.6489 9.83961 18.6169 12.3366 19.3113ZM21.5268 13.1351H21.527C22.8825 13.8263 23.8253 15.1246 24.0629 16.6275C24.3006 18.1305 23.8045 19.6564 22.7282 20.732C21.6519 21.8077 20.1258 22.3033 18.623 22.0648C17.1201 21.8265 15.8223 20.883 15.1319 19.5271C16.7622 19.3367 18.2807 18.6019 19.4411 17.4412C20.6019 16.2807 21.3367 14.7623 21.527 13.132L21.5268 13.1351ZM14.6217 17.0268C14.7029 15.8852 15.193 14.8112 16.0022 14.0021C16.8113 13.1928 17.8854 12.7027 19.0269 12.6216C18.9458 13.7631 18.4557 14.8372 17.6464 15.6463C16.8373 16.4556 15.7633 16.9456 14.6217 17.0268ZM14.289 7.53553C15.1633 7.53619 16.0206 7.7778 16.7664 8.23407C17.5122 8.69033 18.1179 9.34335 18.5165 10.1215C16.8862 10.3118 15.3678 11.0466 14.2073 12.2073C13.0465 13.3678 12.3117 14.8863 12.1214 16.5165C10.8486 15.862 9.93831 14.6687 9.64342 13.2679C9.34876 11.8673 9.70089 10.4084 10.6021 9.29621C11.5033 8.18405 12.8577 7.53728 14.289 7.53553Z" fill="white"/>
</svg>
