<svg width="26" height="29" viewBox="0 0 26 29" fill="none" xmlns="http://www.w3.org/2000/svg">
<path d="M1.15628 1.00464H0.547679C0.243265 1.00464 0 1.24813 0 1.55232V6.0563C0 6.36071 0.243488 6.60398 0.547679 6.60398H1.15628C1.46069 6.60398 1.70396 6.36049 1.70396 6.0563L1.70417 1.55232C1.73453 1.24812 1.46068 1.00464 1.15627 1.00464H1.15628Z" fill="#AE0F0F"/>
<path d="M22.2157 0.000380407H20.9679C20.6635 0.000380407 20.4202 0.243869 20.4202 0.54806V3.31749H18.5941C18.381 3.04364 18.0465 2.86108 17.6811 2.89144C17.3767 2.9218 17.1334 3.074 16.9507 3.31749H8.1252C7.94263 3.10436 7.69915 2.9218 7.39476 2.89144C7.02963 2.86108 6.69486 3.01308 6.48172 3.31749H4.65566L4.65608 0.54806C4.65608 0.243646 4.41259 0.000380407 4.1084 0.000380407H2.86061C2.55619 0.000380407 2.31293 0.243869 2.31293 0.54806V7.03022C2.31293 7.33463 2.55642 7.5779 2.86061 7.5779H4.1084C4.41281 7.5779 4.65608 7.33441 4.65608 7.03022V4.26079H6.23863C5.87351 8.36931 6.26899 8.94731 6.45176 9.19083C6.81689 9.73851 8.46038 11.5037 10.1342 12.0819L10.2559 18.2597L9.06877 27.5417C8.97749 28.2112 9.46446 28.8198 10.1034 28.8808C10.7729 28.9721 11.3816 28.4851 11.4425 27.8461L12.5381 19.3858L13.6034 27.8461C13.6946 28.4547 14.2119 28.9114 14.7902 28.9114H14.9424C15.6119 28.8201 16.0684 28.2115 15.9771 27.5723L14.8206 18.2599L14.9422 12.082C16.5855 11.5038 18.229 9.73867 18.6247 9.19099C18.8073 8.9475 19.203 8.33888 18.8378 4.26095H20.4204V7.03038C20.4204 7.3348 20.6639 7.57806 20.9681 7.57806H22.2159C22.5203 7.57806 22.7635 7.33457 22.7635 7.03038V0.547679C22.7939 0.243478 22.52 0 22.2156 0L22.2157 0.000380407ZM16.8596 8.09547C16.2813 8.88667 14.6381 10.1954 13.9379 10.1954H11.1381C10.4382 10.1954 8.82531 8.85629 8.21649 8.09547C8.12521 7.57814 8.18614 5.78264 8.30778 4.26101H16.7376C16.8898 5.78243 16.9508 7.57812 16.8595 8.09547H16.8596Z" fill="#AE0F0F"/>
<path d="M24.5286 1.00464H23.92C23.6156 1.00464 23.3723 1.24813 23.3723 1.55232V6.0563C23.3723 6.36071 23.6158 6.60398 23.92 6.60398H24.5286C24.833 6.60398 25.0763 6.36049 25.0763 6.0563V1.55232C25.0763 1.24812 24.8328 1.00464 24.5286 1.00464V1.00464Z" fill="#AE0F0F"/>
<path d="M14.9727 7.18247C14.9727 8.52705 13.8826 9.61714 12.5381 9.61714C11.1935 9.61714 10.1034 8.52705 10.1034 7.18247C10.1034 5.83789 11.1935 4.7478 12.5381 4.7478C13.8826 4.7478 14.9727 5.83789 14.9727 7.18247" fill="#AE0F0F"/>
</svg>
