<svg width="28" height="28" viewBox="0 0 28 28" fill="none" xmlns="http://www.w3.org/2000/svg">
<path d="M25.7419 0H2.25806C1.65946 0.000806452 1.08547 0.238911 0.66209 0.66209C0.238906 1.08548 0.000825806 1.65946 0 2.25806V25.7419C0.000806452 26.3405 0.238911 26.9145 0.66209 27.3379C1.08548 27.7611 1.65946 27.9992 2.25806 28H25.7419C26.3405 27.9992 26.9145 27.7611 27.3379 27.3379C27.7611 26.9145 27.9992 26.3405 28 25.7419V2.25806C27.9992 1.65946 27.7611 1.08547 27.3379 0.66209C26.9145 0.238906 26.3405 0.000825806 25.7419 0ZM27.0968 25.7419C27.0968 26.1012 26.954 26.446 26.7 26.7C26.446 26.954 26.1012 27.0967 25.742 27.0967H2.25809C1.89882 27.0967 1.55404 26.954 1.30005 26.7C1.04606 26.4459 0.903277 26.1012 0.903277 25.7419V2.25806C0.903277 1.89879 1.04602 1.55401 1.30005 1.30003C1.55409 1.04604 1.89886 0.903252 2.25809 0.903252H25.742C26.1012 0.903252 26.446 1.04599 26.7 1.30003C26.954 1.55406 27.0968 1.89884 27.0968 2.25806V25.7419Z" fill="#AE0F0F"/>
<path d="M24.8387 1.80664H3.16127C2.802 1.80664 2.45722 1.94938 2.20323 2.20341C1.94924 2.45745 1.80646 2.80223 1.80646 3.16145V24.8389C1.80646 25.1981 1.9492 25.5429 2.20323 25.7969C2.45727 26.0509 2.80204 26.1937 3.16127 26.1937H24.8387C25.198 26.1937 25.5427 26.0509 25.7967 25.7969C26.0507 25.5429 26.1935 25.1981 26.1935 24.8389V3.16145C26.1935 2.80218 26.0508 2.4574 25.7967 2.20341C25.5427 1.94943 25.1979 1.80664 24.8387 1.80664ZM3.16127 2.70987H24.8387C24.9584 2.70987 25.0734 2.75745 25.158 2.84212C25.2427 2.9268 25.2903 3.04172 25.2903 3.16148V18.9679H23.0322V14.5847C23.0429 13.6294 22.6849 12.707 22.0327 12.0094C21.3802 11.3116 20.4841 10.8925 19.5305 10.8388C18.3853 10.8032 17.2911 11.3128 16.5817 12.2124C15.872 13.112 15.6313 14.2947 15.9325 15.4001C16.2649 16.5679 16.4998 17.7612 16.6347 18.9679H11.3655C11.5004 17.7612 11.7353 16.5679 12.0677 15.4001C12.3689 14.2947 12.1282 13.112 11.4185 12.2124C10.709 11.3128 9.6149 10.8031 8.46971 10.8388C7.51606 10.8925 6.6199 11.3116 5.96752 12.0094C5.31528 12.707 4.95724 13.6294 4.96793 14.5847V18.9679H2.70986V3.16148C2.70986 2.91209 2.91208 2.70987 3.16148 2.70987H3.16127ZM16.8041 15.1625C16.5827 14.3478 16.7539 13.4766 17.2666 12.8061C17.7793 12.1355 18.5753 11.7422 19.4194 11.7424H19.5039C20.2233 11.7873 20.8975 12.1077 21.3864 12.6371C21.8755 13.1666 22.1414 13.8641 22.1291 14.5849V21.1124C22.1398 21.7134 21.9183 22.2955 21.5106 22.7372C21.103 23.1791 20.5407 23.4466 19.9407 23.4842C19.3298 23.5029 18.7375 23.2735 18.2987 22.8479C17.8602 22.4223 17.6129 21.8372 17.6131 21.2261V20.3743C17.5806 18.6083 17.3084 16.8551 16.8042 15.1624L16.8041 15.1625ZM10.3871 20.3744V21.2262C10.3893 21.8375 10.1413 22.423 9.70099 22.847C9.2653 23.277 8.67115 23.5076 8.05944 23.4843C7.45944 23.4468 6.89711 23.1792 6.48948 22.7373C6.08182 22.2955 5.86026 21.7135 5.87095 21.1125V14.585C5.85865 13.8642 6.12478 13.1667 6.61371 12.6372C7.10282 12.1078 7.77722 11.7872 8.49655 11.7425H8.58102C9.42515 11.7425 10.2209 12.1358 10.7336 12.8064C11.2463 13.4769 11.4171 14.3479 11.1959 15.1626C10.6917 16.8554 10.4195 18.6086 10.3871 20.3745L10.3871 20.3744ZM24.8387 25.2907H3.16127C2.91188 25.2907 2.70966 25.0885 2.70966 24.8391V19.8714H4.96772V21.1125C4.95845 21.9478 5.27195 22.7546 5.84272 23.3647C6.4135 23.9748 7.19776 24.3411 8.03183 24.3875H8.13082C8.96932 24.3875 9.77335 24.0544 10.3661 23.4615C10.9591 22.8688 11.2921 22.0648 11.2921 21.2262V20.3744C11.2921 20.2083 11.2961 20.0401 11.3026 19.8714H16.6992C16.7055 20.0403 16.7097 20.2083 16.7097 20.3744V21.2262C16.7097 22.0647 17.0428 22.8687 17.6357 23.4615C18.2284 24.0544 19.0325 24.3875 19.871 24.3875H19.97C20.8039 24.3407 21.5876 23.9742 22.1579 23.3641C22.7283 22.754 23.0416 21.9476 23.0323 21.1125V19.8714H25.2904V24.8391C25.2904 24.9589 25.2428 25.0738 25.1581 25.1585C25.0734 25.2431 24.9585 25.2907 24.8388 25.2907H24.8387Z" fill="#AE0F0F"/>
<path d="M6.32259 9.93532H21.6774C22.0367 9.93532 22.3815 9.79258 22.6355 9.53855C22.8895 9.28451 23.0322 8.93974 23.0322 8.58051V4.96761C23.0322 4.60833 22.8895 4.26355 22.6355 4.00957C22.3814 3.75558 22.0367 3.61279 21.6774 3.61279H6.32259C5.96331 3.61279 5.61853 3.75553 5.36455 4.00957C5.11056 4.2636 4.96777 4.60838 4.96777 4.96761V8.58051C4.96777 8.93978 5.11051 9.28456 5.36455 9.53855C5.61858 9.79254 5.96336 9.93532 6.32259 9.93532ZM5.87097 4.96758C5.87097 4.71819 6.07319 4.51597 6.32259 4.51597H21.6774C21.7972 4.51597 21.9121 4.56355 21.9968 4.64823C22.0815 4.7329 22.129 4.84782 22.129 4.96758V8.58048C22.129 8.70024 22.0815 8.81516 21.9968 8.89984C21.9121 8.98451 21.7972 9.0321 21.6774 9.0321H6.32259C6.07319 9.0321 5.87097 8.82988 5.87097 8.58048V4.96758Z" fill="#AE0F0F"/>
<path d="M17.1613 8.58068H18.9678C19.0875 8.58068 19.2025 8.5331 19.2871 8.44842C19.3718 8.36374 19.4194 8.24882 19.4194 8.12906V5.41939C19.4194 5.29963 19.3718 5.18471 19.2871 5.10003C19.2025 5.01536 19.0875 4.96777 18.9678 4.96777H17.1613C16.9119 4.96777 16.7097 5.16999 16.7097 5.41939V8.12906C16.7097 8.24882 16.7573 8.36374 16.842 8.44842C16.9267 8.53309 17.0416 8.58068 17.1613 8.58068ZM17.6129 5.871H18.5162V7.67745H17.6129V5.871Z" fill="#AE0F0F"/>
<path d="M20.3226 7.67725H21.2258V8.58047H20.3226V7.67725Z" fill="#AE0F0F"/>
<path d="M20.7742 14.4514H21.6774C21.6766 13.8528 21.4385 13.2788 21.0153 12.8554C20.5919 12.4323 20.0179 12.1942 19.4193 12.1934V13.0966C19.7786 13.0966 20.1234 13.2393 20.3774 13.4934C20.6313 13.7474 20.7741 14.0922 20.7741 14.4514L20.7742 14.4514Z" fill="#AE0F0F"/>
<path d="M6.32254 14.4516H7.22576C7.22576 14.0924 7.3685 13.7476 7.62254 13.4936C7.87657 13.2396 8.22135 13.0968 8.58057 13.0968V12.1936C7.98197 12.1944 7.40798 12.4325 6.9846 12.8557C6.56142 13.2791 6.32334 13.8531 6.32251 14.4517L6.32254 14.4516Z" fill="#AE0F0F"/>
</svg>
