<svg width="20" height="20" viewBox="0 0 20 20" fill="none" xmlns="http://www.w3.org/2000/svg">
<path d="M6.27192 0.739258C3.25426 0.739258 0.798889 3.19832 0.798889 6.21948V14.0465C0.798889 17.0673 3.25571 19.5252 6.27412 19.5252H14.094C17.112 19.5252 19.5677 17.0662 19.5677 14.045V6.21728C19.5677 3.19687 17.1109 0.739258 14.0925 0.739258H6.27192ZM15.814 3.74502C16.2284 3.74502 16.5647 4.08166 16.5647 4.49645C16.5647 4.91125 16.2284 5.24789 15.814 5.24789C15.3996 5.24789 15.0632 4.91125 15.0632 4.49645C15.0632 4.08166 15.3996 3.74502 15.814 3.74502ZM10.1833 5.24789C12.8748 5.24789 15.0632 7.43834 15.0632 10.1322C15.0632 12.8262 12.8744 15.0166 10.1833 15.0166C7.49186 15.0166 5.30341 12.8258 5.30341 10.1322C5.30341 7.43871 7.49186 5.24789 10.1833 5.24789ZM10.1833 6.75077C8.31732 6.75077 6.80492 8.26455 6.80492 10.1322C6.80492 12 8.31732 13.5137 10.1833 13.5137C12.0493 13.5137 13.5617 12 13.5617 10.1322C13.5617 8.26455 12.0493 6.75077 10.1833 6.75077Z" fill="#E12727"/>
</svg>
