<svg width="73" height="63" viewBox="0 0 73 63" fill="none" xmlns="http://www.w3.org/2000/svg">
<g clip-path="url(#clip0_1_5)">
<path d="M10 1H72V61H10V1Z" stroke="white"/>
<path d="M0.75 27V20.33H2.15L4.49 23.69L3.72 23.75L6.17 20.33H7.53V27H6.18V21.41L6.49 21.77L4.08 25.04L1.74 21.76L2.06 21.48V27H0.75ZM14.934 27.11C13.8807 27.11 13.0807 26.83 12.534 26.27C11.9873 25.7033 11.714 24.8333 11.714 23.66C11.714 22.52 11.9807 21.66 12.514 21.08C13.0473 20.4933 13.854 20.2 14.934 20.2C15.2873 20.2 15.6407 20.2433 15.994 20.33C16.354 20.4167 16.7007 20.5367 17.034 20.69V21.89C16.694 21.6767 16.364 21.5233 16.044 21.43C15.724 21.3367 15.414 21.29 15.114 21.29C14.674 21.29 14.304 21.37 14.004 21.53C13.7107 21.6833 13.4873 21.9333 13.334 22.28C13.1873 22.6267 13.114 23.09 13.114 23.67C13.114 24.2433 13.1907 24.7033 13.344 25.05C13.4973 25.3967 13.724 25.6467 14.024 25.8C14.3307 25.9533 14.7107 26.03 15.164 26.03C15.4373 26.03 15.7307 25.9833 16.044 25.89C16.364 25.7967 16.694 25.6467 17.034 25.44V26.64C16.8407 26.7333 16.624 26.8167 16.384 26.89C16.1507 26.9633 15.9107 27.0167 15.664 27.05C15.4173 27.09 15.174 27.11 14.934 27.11ZM18.4035 27V20.33H21.5035C22.2302 20.33 22.7902 20.5033 23.1835 20.85C23.5835 21.19 23.7835 21.7033 23.7835 22.39C23.7835 22.71 23.7168 23.0167 23.5835 23.31C23.4568 23.5967 23.2668 23.8367 23.0135 24.03C22.7668 24.2233 22.4635 24.3433 22.1035 24.39L22.1135 23.95L24.1235 27H22.4135L20.6535 24.05L21.2635 24.59H19.7635V27H18.4035ZM19.7635 23.55H21.2135C21.5802 23.55 21.8602 23.4633 22.0535 23.29C22.2468 23.11 22.3435 22.8333 22.3435 22.46C22.3435 22.1267 22.2635 21.87 22.1035 21.69C21.9435 21.51 21.6902 21.42 21.3435 21.42H19.7635V23.55ZM27.9855 27.12C27.3255 27.12 26.7589 26.9967 26.2855 26.75C25.8122 26.4967 25.4489 26.1167 25.1955 25.61C24.9422 25.0967 24.8155 24.45 24.8155 23.67C24.8155 22.53 25.0889 21.67 25.6355 21.09C26.1889 20.5033 26.9722 20.21 27.9855 20.21C28.6522 20.21 29.2222 20.3367 29.6955 20.59C30.1689 20.8433 30.5322 21.2233 30.7855 21.73C31.0455 22.2367 31.1755 22.8833 31.1755 23.67C31.1755 24.8033 30.8989 25.6633 30.3455 26.25C29.7989 26.83 29.0122 27.12 27.9855 27.12ZM27.9855 25.99C28.3855 25.99 28.7155 25.9133 28.9755 25.76C29.2422 25.6 29.4422 25.35 29.5755 25.01C29.7089 24.67 29.7755 24.22 29.7755 23.66C29.7755 23.1 29.7089 22.6533 29.5755 22.32C29.4422 21.98 29.2422 21.7333 28.9755 21.58C28.7155 21.4267 28.3855 21.35 27.9855 21.35C27.5989 21.35 27.2722 21.43 27.0055 21.59C26.7455 21.7433 26.5489 21.99 26.4155 22.33C26.2822 22.6633 26.2155 23.11 26.2155 23.67C26.2155 24.23 26.2822 24.68 26.4155 25.02C26.5489 25.36 26.7455 25.6067 27.0055 25.76C27.2722 25.9133 27.5989 25.99 27.9855 25.99ZM3.65273 41V34.33H8.06273V35.42H5.01273V37.21H7.66273V38.31H5.01273V41H3.65273ZM13.7509 41V35.42H11.7309V34.33H17.1409V35.42H15.1109V41H13.7509ZM18.2105 41V34.33H19.4305L23.0705 39.31L22.6805 40.11V34.33H23.9405V41H22.8405L19.1105 36L19.4805 35.39V41H18.2105ZM25.5371 41V34.33H30.0071V35.42H26.8971V37.11H29.5971V38.21H26.8971V39.91H30.0071V41H25.5371ZM33.6658 41.12C33.3258 41.12 33.0224 41.1033 32.7558 41.07C32.4958 41.0367 32.2558 40.9833 32.0358 40.91C31.8224 40.8367 31.6058 40.7433 31.3858 40.63V39.32C31.6658 39.5467 31.9924 39.7267 32.3658 39.86C32.7458 39.9867 33.1324 40.05 33.5258 40.05C33.8858 40.05 34.1558 39.98 34.3358 39.84C34.5224 39.6933 34.6158 39.4833 34.6158 39.21C34.6158 39.0033 34.5391 38.8367 34.3858 38.71C34.2391 38.5833 34.0424 38.4733 33.7958 38.38C33.5491 38.2867 33.2791 38.19 32.9858 38.09C32.7791 38.0167 32.5758 37.9367 32.3758 37.85C32.1824 37.7567 32.0058 37.64 31.8458 37.5C31.6924 37.36 31.5691 37.1867 31.4758 36.98C31.3824 36.7667 31.3358 36.5067 31.3358 36.2C31.3358 35.9533 31.3824 35.71 31.4758 35.47C31.5691 35.23 31.7124 35.0167 31.9058 34.83C32.0991 34.6367 32.3491 34.4833 32.6558 34.37C32.9624 34.2567 33.3291 34.2 33.7558 34.2C34.0224 34.2 34.2558 34.2167 34.4558 34.25C34.6624 34.2833 34.8591 34.3333 35.0458 34.4C35.2324 34.4667 35.4258 34.55 35.6258 34.65V35.96C35.4658 35.8467 35.2958 35.74 35.1158 35.64C34.9358 35.5333 34.7424 35.4467 34.5358 35.38C34.3358 35.3133 34.1191 35.2767 33.8858 35.27C33.6458 35.2633 33.4391 35.29 33.2658 35.35C33.0924 35.41 32.9591 35.5 32.8658 35.62C32.7724 35.74 32.7258 35.8833 32.7258 36.05C32.7258 36.2567 32.7824 36.4233 32.8958 36.55C33.0091 36.67 33.1691 36.77 33.3758 36.85C33.5824 36.93 33.8191 37.0133 34.0858 37.1C34.3458 37.18 34.5891 37.27 34.8158 37.37C35.0491 37.4633 35.2524 37.5833 35.4258 37.73C35.6058 37.8767 35.7458 38.0567 35.8458 38.27C35.9524 38.4833 36.0058 38.7433 36.0058 39.05C36.0058 39.4233 35.9191 39.7667 35.7458 40.08C35.5724 40.3933 35.3124 40.6467 34.9658 40.84C34.6258 41.0267 34.1924 41.12 33.6658 41.12ZM39.4689 41.12C39.1289 41.12 38.8256 41.1033 38.5589 41.07C38.2989 41.0367 38.0589 40.9833 37.8389 40.91C37.6256 40.8367 37.4089 40.7433 37.1889 40.63V39.32C37.4689 39.5467 37.7956 39.7267 38.1689 39.86C38.5489 39.9867 38.9356 40.05 39.3289 40.05C39.6889 40.05 39.9589 39.98 40.1389 39.84C40.3256 39.6933 40.4189 39.4833 40.4189 39.21C40.4189 39.0033 40.3422 38.8367 40.1889 38.71C40.0422 38.5833 39.8456 38.4733 39.5989 38.38C39.3522 38.2867 39.0822 38.19 38.7889 38.09C38.5822 38.0167 38.3789 37.9367 38.1789 37.85C37.9856 37.7567 37.8089 37.64 37.6489 37.5C37.4956 37.36 37.3722 37.1867 37.2789 36.98C37.1856 36.7667 37.1389 36.5067 37.1389 36.2C37.1389 35.9533 37.1856 35.71 37.2789 35.47C37.3722 35.23 37.5156 35.0167 37.7089 34.83C37.9022 34.6367 38.1522 34.4833 38.4589 34.37C38.7656 34.2567 39.1322 34.2 39.5589 34.2C39.8256 34.2 40.0589 34.2167 40.2589 34.25C40.4656 34.2833 40.6622 34.3333 40.8489 34.4C41.0356 34.4667 41.2289 34.55 41.4289 34.65V35.96C41.2689 35.8467 41.0989 35.74 40.9189 35.64C40.7389 35.5333 40.5456 35.4467 40.3389 35.38C40.1389 35.3133 39.9222 35.2767 39.6889 35.27C39.4489 35.2633 39.2422 35.29 39.0689 35.35C38.8956 35.41 38.7622 35.5 38.6689 35.62C38.5756 35.74 38.5289 35.8833 38.5289 36.05C38.5289 36.2567 38.5856 36.4233 38.6989 36.55C38.8122 36.67 38.9722 36.77 39.1789 36.85C39.3856 36.93 39.6222 37.0133 39.8889 37.1C40.1489 37.18 40.3922 37.27 40.6189 37.37C40.8522 37.4633 41.0556 37.5833 41.2289 37.73C41.4089 37.8767 41.5489 38.0567 41.6489 38.27C41.7556 38.4833 41.8089 38.7433 41.8089 39.05C41.8089 39.4233 41.7222 39.7667 41.5489 40.08C41.3756 40.3933 41.1156 40.6467 40.7689 40.84C40.4289 41.0267 39.9956 41.12 39.4689 41.12Z" fill="white"/>
<path d="M65 54.3919V57.9324H53V54.3919H59H65Z" stroke="#B81F1F"/>
<path d="M58.2778 55.8378H51.7778" stroke="#B81F1F"/>
<rect x="69.8333" y="52.5946" width="1.44444" height="6.48649" rx="0.1" stroke="#B81F1F"/>
<path d="M64.7778 50.106C64.7778 50.1004 64.7778 50.0976 64.7779 50.0953C64.7803 50.0438 64.8215 50.0025 64.8731 50.0001C64.8754 50 64.8782 50 64.8838 50H69.7273C69.7329 50 69.7357 50 69.738 50.0001C69.7896 50.0025 69.8308 50.0438 69.8332 50.0953C69.8333 50.0976 69.8333 50.1004 69.8333 50.106V61.5697C69.8333 61.5752 69.8333 61.578 69.8332 61.5804C69.8308 61.6319 69.7896 61.6731 69.738 61.6756C69.7357 61.6757 69.7329 61.6757 69.7273 61.6757H64.8838C64.8782 61.6757 64.8754 61.6757 64.8731 61.6756C64.8215 61.6731 64.7803 61.6319 64.7779 61.5804C64.7778 61.578 64.7778 61.5752 64.7778 61.5697V50.106Z" stroke="#B81F1F"/>
<rect x="69.8333" y="52.5946" width="2.16667" height="6.48649" rx="0.1" stroke="#B81F1F"/>
<path d="M67.3055 50V62" stroke="#B81F1F"/>
<rect x="46" y="52.5946" width="2.16667" height="6.48649" rx="0.1" stroke="#B81F1F"/>
<path d="M48.1667 50.106C48.1667 50.1004 48.1667 50.0976 48.1668 50.0953C48.1692 50.0438 48.2104 50.0025 48.2619 50.0001C48.2643 50 48.2671 50 48.2727 50H53.1162C53.1218 50 53.1246 50 53.1269 50.0001C53.1784 50.0025 53.2197 50.0438 53.2221 50.0953C53.2222 50.0976 53.2222 50.1004 53.2222 50.106V61.5697C53.2222 61.5752 53.2222 61.578 53.2221 61.5804C53.2197 61.6319 53.1784 61.6731 53.1269 61.6756C53.1246 61.6757 53.1218 61.6757 53.1162 61.6757H48.2727C48.2671 61.6757 48.2643 61.6757 48.2619 61.6756C48.2104 61.6731 48.1692 61.6319 48.1668 61.5804C48.1667 61.578 48.1667 61.5752 48.1667 61.5697V50.106Z" stroke="#B81F1F"/>
<path d="M50.6945 50V62" stroke="#B81F1F"/>
</g>
<defs>
<clipPath id="clip0_1_5">
<rect width="73" height="63" fill="white"/>
</clipPath>
</defs>
</svg>
