<svg width="221" height="32" viewBox="0 0 221 32" fill="none" xmlns="http://www.w3.org/2000/svg">
<path d="M212.98 21.1919H200.504V22.9932H204.069V25.6953H207.633L213.871 24.7946L214.762 25.6953L218.327 27.4966H221V29.298H219.218V32C139.309 29.6229 96.2419 29.298 28.5161 31.0993L8.91129 32V29.298H11.5847V27.4966H8.91129V25.6953H1.78226V22.9932L0 18.4898V15.7878H8.91129L8.02016 13.9864H16.9315L19.6048 13.0858H27.625V11.2844H23.1694L20.496 10.3837L19.6048 9.48306L17.8226 8.58238L19.6048 6.78103H23.1694L25.8427 4.97967H29.4073H37.4274V2.27764C100.852 -1.36931 137.695 -0.0675479 202.601 2.2258L204.069 2.27764V4.97967L205.851 6.78103L207.633 4.97967H212.98V8.58238H216.544V11.2844H214.762V16.6885H212.98V21.1919Z" fill="#AE0F0F"/>
</svg>
